<?xml version="1.0" encoding="utf-8"?>
<!-- Generator: Adobe Illustrator 26.5.0, SVG Export Plug-In . SVG Version: 6.00 Build 0)  -->
<svg version="1.1" id="Camada_1" xmlns="http://www.w3.org/2000/svg" xmlns:xlink="http://www.w3.org/1999/xlink" x="0px" y="0px"
	 viewBox="0 0 24 22" style="enable-background:new 0 0 24 22;" xml:space="preserve">
<style type="text/css">
	.st0{fill:#FFFFFF;}
</style>
<g>
	<path class="st0" d="M13,22H9c-0.6,0-1-0.4-1-1v-7H6c-0.6,0-1-0.4-1-1V9c0-0.6,0.4-1,1-1h2V6c0-3.3,2.7-6,6-6h3c0.6,0,1,0.4,1,1v4
		c0,0.6-0.4,1-1,1h-3v2h3c0.3,0,0.6,0.1,0.8,0.4S18,8.9,18,9.2l-1,4c-0.1,0.4-0.5,0.8-1,0.8h-2v7C14,21.6,13.6,22,13,22z M10,20h2
		v-7c0-0.6,0.4-1,1-1h2.2l0.5-2H13c-0.6,0-1-0.4-1-1V6c0-1.1,0.9-2,2-2h2V2h-2c-2.2,0-4,1.8-4,4v3c0,0.6-0.4,1-1,1H7v2h2
		c0.6,0,1,0.4,1,1V20z"/>
</g>
</svg>
