<?xml version="1.0" encoding="utf-8"?>
<!-- Generator: Adobe Illustrator 26.5.0, SVG Export Plug-In . SVG Version: 6.00 Build 0)  -->
<svg version="1.1" id="Camada_1" xmlns="http://www.w3.org/2000/svg" xmlns:xlink="http://www.w3.org/1999/xlink" x="0px" y="0px"
	 viewBox="0 0 24 22" style="enable-background:new 0 0 24 22;" xml:space="preserve">
<style type="text/css">
	.st0{fill:#FFFFFF;}
</style>
<g>
	<path class="st0" d="M17,22H7c-3.3,0-6-2.7-6-6V6c0-3.3,2.7-6,6-6h10c3.3,0,6,2.7,6,6v10C23,19.3,20.3,22,17,22z M7,2
		C4.8,2,3,3.8,3,6v10c0,2.2,1.8,4,4,4h10c2.2,0,4-1.8,4-4V6c0-2.2-1.8-4-4-4H7z"/>
</g>
<g>
	<path class="st0" d="M12,16c-1.3,0-2.6-0.5-3.5-1.5C7,13,6.6,10.6,7.6,8.7c1-1.9,3.1-3,5.2-2.7c2.2,0.3,3.9,2,4.2,4.2v0
		c0.3,2.1-0.8,4.2-2.7,5.2C13.6,15.8,12.8,16,12,16z M12,8c-1.1,0-2.2,0.6-2.7,1.7c-0.6,1.2-0.4,2.6,0.6,3.5
		c0.9,0.9,2.3,1.1,3.5,0.6c1.2-0.6,1.8-1.8,1.6-3.1l0,0c-0.2-1.3-1.2-2.3-2.5-2.5C12.3,8,12.2,8,12,8z"/>
</g>
</svg>
