<?xml version="1.0" encoding="utf-8"?>
<!-- Generator: Adobe Illustrator 26.5.0, SVG Export Plug-In . SVG Version: 6.00 Build 0)  -->
<svg version="1.1" id="Camada_1" xmlns="http://www.w3.org/2000/svg" xmlns:xlink="http://www.w3.org/1999/xlink" x="0px" y="0px"
	 viewBox="0 0 203.2 159.8" style="enable-background:new 0 0 203.2 159.8;" xml:space="preserve">
<style type="text/css">
	.st0{fill:#FFFFFF;}
	.st1{fill:#F2F2F2;}
	.st2{fill:#FFE0E0;}
	.st3{fill:#DDBEA9;}
	.st4{opacity:0.1;enable-background:new    ;}
	.st5{fill:#FFA7A7;}
	.st6{fill:#BB3C3C;}
</style>
<g>
	<path class="st0" d="M110.6,111.2C53.9,135.8,5.5,144.3,0.4,130.5c-3-8.3,10-22.5,35.8-39c0.1-0.1,0.2-0.1,0.3-0.1
		c0.1,0,0.2,0,0.3,0c0.1,0,0.2,0.1,0.3,0.1c0.1,0.1,0.2,0.1,0.2,0.2c0.1,0.1,0.1,0.2,0.1,0.3c0,0.1,0,0.2,0,0.3
		c0,0.1-0.1,0.2-0.1,0.3c-0.1,0.1-0.1,0.2-0.2,0.2l0,0l0,0c-24.3,15.5-37.7,29.7-35.1,36.8C6.5,142.3,56,133,110,109.6
		c54-23.4,95.8-53.8,91.2-66.2c-2.6-7.2-21.4-7.4-49.1-0.4c-0.1,0-0.2,0-0.3,0c-0.1,0-0.2-0.1-0.3-0.1c-0.1-0.1-0.2-0.1-0.2-0.2
		c-0.1-0.1-0.1-0.2-0.1-0.3c0-0.1,0-0.2,0-0.3c0-0.1,0.1-0.2,0.1-0.3c0.1-0.1,0.1-0.2,0.2-0.2c0.1-0.1,0.2-0.1,0.3-0.1l0,0l0,0
		c29.3-7.4,47.9-6.9,50.9,1.4C207.8,56.5,167.3,86.5,110.6,111.2z"/>
	<path class="st0" d="M75.4,104.8C27.5,67.7-3,29.7,6.1,18.3c5.5-6.8,23.7-2.6,49.9,11.5c0.1,0,0.2,0.1,0.2,0.2
		c0.1,0.1,0.1,0.2,0.1,0.3c0,0.1,0,0.2,0,0.3c0,0.1,0,0.2-0.1,0.3c-0.1,0.1-0.1,0.2-0.2,0.2c-0.1,0.1-0.2,0.1-0.3,0.2
		c-0.1,0-0.2,0-0.3,0c-0.1,0-0.2,0-0.3-0.1l0,0l0,0c-24.7-13.3-43-17.9-47.8-12c-8.2,10.3,23.4,48.9,69.1,84.2
		c45.7,35.3,91.2,56.5,99.5,46.2c4.8-6-4.2-22.5-23.3-43.1c-0.1-0.1-0.1-0.2-0.2-0.3s-0.1-0.2,0-0.3c0-0.1,0-0.2,0.1-0.3
		s0.1-0.2,0.2-0.3c0.1-0.1,0.2-0.1,0.3-0.2c0.1,0,0.2-0.1,0.3-0.1c0.1,0,0.2,0,0.3,0.1c0.1,0,0.2,0.1,0.3,0.2l0,0l0,0
		c20.3,21.9,28.8,38.3,23.4,45.2C168.1,162.1,123.4,141.9,75.4,104.8z"/>
	<path class="st1" d="M101.2,159.8c43.4,0,78.6-35.6,78.6-79.6c0-44-35.2-79.6-78.6-79.6c-43.4,0-78.6,35.6-78.6,79.6
		C22.6,124.1,57.8,159.8,101.2,159.8z"/>
	<path class="st0" d="M172.9,81.2c0,9.5-1.8,18.9-5.4,27.7c-3.6,8.8-8.9,16.8-15.5,23.5c-6.6,6.7-14.5,12.1-23.2,15.7
		c-8.7,3.6-18,5.5-27.4,5.5c-8.4,0-16.7-1.5-24.6-4.4c-12.3-4.5-23.2-12.4-31.4-22.8c-8.2-10.3-13.4-22.8-15.1-35.9
		c-1.7-13.2,0.2-26.5,5.5-38.7C41,39.8,49.5,29.3,60.2,21.7S83.5,9.6,96.6,8.8c13.1-0.9,26.1,1.9,37.8,8.1
		c11.6,6.1,21.4,15.4,28.1,26.7C169.3,54.9,172.9,67.9,172.9,81.2z"/>
	<path class="st2" d="M77.3,89.1c12.2,0,22.1-10,22.1-22.4s-9.9-22.4-22.1-22.4c-12.2,0-22.1,10-22.1,22.4S65.1,89.1,77.3,89.1z"/>
	<path class="st2" d="M170.1,61.1c-4.8,2.3-10.2,2.8-15.4,1.4c-5.1-1.4-9.6-4.6-12.5-9.1c-3-4.5-4.2-9.9-3.6-15.2
		c0.6-5.3,3.2-10.3,7.1-13.9C157.4,33.7,165.9,46.6,170.1,61.1z"/>
	<path class="st2" d="M125.1,113.4c4.4,0,8-3.6,8-8.1c0-4.4-3.6-8-8-8s-8,3.6-8,8C117.2,109.8,120.8,113.4,125.1,113.4z"/>
	<path class="st2" d="M92.5,150.9c0,0.7-0.1,1.4-0.3,2.1c-5.3-0.7-10.5-1.9-15.5-3.8c0.4-1.9,1.5-3.7,3.1-4.8
		c1.6-1.2,3.6-1.7,5.5-1.5c2,0.2,3.8,1.1,5.1,2.6C91.7,147,92.5,149,92.5,150.9z"/>
	<path class="st2" d="M45.6,77.6c0,4.1-1.5,8-4.3,11c-2.8,3-6.5,4.8-10.6,5.1C29,83,29.5,72.1,32.3,61.7c3.7,0.6,7.1,2.6,9.5,5.5
		C44.3,70.1,45.6,73.8,45.6,77.6z"/>
	<path class="st3" d="M124.9,78.6c0,0-1.3,3.7-3.3,9c-0.7,1.7-1.4,3.6-2.2,5.6c-1.1,2.8-2.3,5.7-3.6,8.7c-0.8,1.8-1.6,3.6-2.4,5.4
		c-4.4,9.5-9.1,17.8-12.2,17.9c-6.9,0.3-21.7-41.5-23.3-46.1c-0.1-0.3-0.1-0.4-0.1-0.4H124.9z"/>
	<path class="st4" d="M121.6,87.5c-0.7,1.7-1.4,3.6-2.2,5.6l-18.3-14.6h9.2L121.6,87.5z"/>
	<path class="st4" d="M115.7,101.8c-0.8,1.8-1.6,3.6-2.4,5.4L77.9,79c-0.1-0.3-0.1-0.4-0.1-0.4h8.8L115.7,101.8z"/>
	<path class="st5" d="M102.1,41.6c-2.2,1.5-5.6,1-7.7,2.6c-1.4,1.1-1.8,3-1.4,4.7c0.4,1.7,1.4,3.2,2.5,4.6c0.7,1,1.5,2,2.5,2.7
		c1.4,1,3.2,1.5,5,1.9c3.8,0.9,7.8,1.4,11.7,1.5c1.8,0.1,3.8,0,5-1.2c0.7-0.7,1-1.6,1.2-2.5c0.3-1.4,0.5-3-0.2-4.3
		c-0.5-1.1-1.6-1.9-2.6-2.6c-3.3-2.3-7.2-4.2-9.2-7.5c-0.8-1.3-1.3-2.8-2.5-3.8c-1.6-1.3-5.1-1.9-7-1
		C99.7,37.3,103.4,40.6,102.1,41.6z"/>
	<path class="st5" d="M84,57c-0.6,2-1.2,4.1-0.7,6.2c0.7,2.7,3.3,4.7,6.2,5.7c2.9,1,6,1.1,9,1.2l16,0.5c2,0.1,4,0.1,5.9,0.8
		c1.6,0.5,3.4,1.4,4.7,0.4c0.6-0.4,0.9-1.1,1.1-1.8c0.7-2.1,1.1-4.5,0.1-6.5c-1-2.3-3.6-3.9-6.3-4.6c-2.7-0.7-5.5-0.8-8.3-1.1
		c-2.8-0.3-5.6-0.8-8.3-1.5c-2.3-0.6-4.6-1.4-6.3-2.9c-0.9-0.8-1.6-1.8-2.5-2.7C89.7,45.8,85.2,53.2,84,57z"/>
	<path class="st5" d="M80.5,66.2c-1.6,0.6-2.9,1.6-3.9,2.8c-1,1.2-1.6,2.7-1.9,4.2c-0.2,1.5,0,3.1,0.7,4.5c0.6,1.4,1.7,2.7,3,3.6
		c2.4,1.7,5.6,2.3,8.7,2.5c3,0.2,6,0.1,9-0.1l26.6-1.2c1.6-0.1,3.3-0.2,4.3-1.4c0.7-0.8,0.8-2,0.6-3c-0.6-3.8-3.7-7.1-7.8-8.2
		c-1.5-0.4-3.1-0.6-4.7-0.7l-11.4-1c-1.5-0.1-3.1-0.3-4.6-0.6c-4.5-1.1-8.6-4.4-13.2-3.9c-3.2,0.3-5.8,2.3-8,4.3"/>
	<path class="st4" d="M95.4,49.9c0,0,3.7,6.1,22.9,8.6L95.4,49.9z"/>
	<path class="st4" d="M84.8,65.9c0,0,6.9,6.3,35.5,6.3L84.8,65.9z"/>
	<path class="st6" d="M100.9,46.9c1,0,1.8-0.2,1.8-0.6c0-0.3-0.8-0.6-1.8-0.6s-1.8,0.2-1.8,0.6C99.1,46.7,99.9,46.9,100.9,46.9z"/>
	<path class="st6" d="M107,50.5c1,0,1.8-0.2,1.8-0.6c0-0.3-0.8-0.6-1.8-0.6s-1.8,0.2-1.8,0.6C105.1,50.2,106,50.5,107,50.5z"/>
	<path class="st6" d="M114,54.3c1,0,1.8-0.2,1.8-0.6c0-0.3-0.8-0.6-1.8-0.6c-1,0-1.8,0.2-1.8,0.6C112.1,54.1,112.9,54.3,114,54.3z"
		/>
	<path class="st6" d="M89.6,56c1,0,1.8-0.2,1.8-0.6c0-0.3-0.8-0.6-1.8-0.6c-1,0-1.8,0.2-1.8,0.6C87.8,55.7,88.6,56,89.6,56z"/>
	<path class="st6" d="M105.1,61.2c1,0,1.8-0.2,1.8-0.6c0-0.3-0.8-0.6-1.8-0.6c-1,0-1.8,0.2-1.8,0.6C103.3,61,104.1,61.2,105.1,61.2z
		"/>
	<path class="st6" d="M83.2,72c1,0,1.8-0.2,1.8-0.6c0-0.3-0.8-0.6-1.8-0.6c-1,0-1.8,0.2-1.8,0.6C81.4,71.7,82.2,72,83.2,72z"/>
	<path class="st6" d="M94.8,61.8c1,0,1.8-0.2,1.8-0.6c0-0.3-0.8-0.6-1.8-0.6c-1,0-1.8,0.2-1.8,0.6C93,61.5,93.8,61.8,94.8,61.8z"/>
	<path class="st6" d="M87.8,76.1c1,0,1.8-0.2,1.8-0.6c0-0.3-0.8-0.6-1.8-0.6c-1,0-1.8,0.2-1.8,0.6C86,75.8,86.8,76.1,87.8,76.1z"/>
	<path class="st6" d="M99.7,73.6c1,0,1.8-0.2,1.8-0.6c0-0.3-0.8-0.6-1.8-0.6c-1,0-1.8,0.2-1.8,0.6C97.8,73.4,98.7,73.6,99.7,73.6z"
		/>
	<path class="st5" d="M106.8,86.8c1.1,0,2-1.7,2-3.7c0-2.1-0.9-3.7-2-3.7s-2,1.7-2,3.7C104.8,85.2,105.7,86.8,106.8,86.8z"/>
	<path class="st5" d="M109.2,88.2c1.1,0,2-1.7,2-3.7s-0.9-3.7-2-3.7c-1.1,0-2,1.7-2,3.7S108.1,88.2,109.2,88.2z"/>
</g>
</svg>
