<svg width="218" height="172" viewBox="0 0 218 172" fill="none" xmlns="http://www.w3.org/2000/svg">
<g filter="url(#filter0_d_66_3)">
<path d="M120.734 111.15C64.0103 135.771 15.6142 144.266 10.5554 130.491C7.52245 122.233 20.5606 108.03 46.3268 91.5269C46.4182 91.4672 46.5194 91.427 46.6246 91.4084C46.7298 91.3899 46.8369 91.3934 46.9398 91.4187C47.0427 91.4441 47.1395 91.4908 47.2244 91.5562C47.3094 91.6216 47.3809 91.7044 47.435 91.8C47.4891 91.8955 47.5247 92.0018 47.5396 92.1128C47.5546 92.2239 47.5488 92.3376 47.5223 92.4473C47.4959 92.557 47.4495 92.6606 47.3857 92.7523C47.3219 92.844 47.242 92.9218 47.1506 92.9815L47.1479 92.9832L47.1389 92.9889C22.8673 108.536 9.42788 122.654 12.0652 129.836C16.6399 142.293 66.1374 133.01 120.152 109.566C174.166 86.1213 215.934 55.7914 211.36 43.3347C208.711 36.1231 189.914 35.9761 162.302 42.9517C162.199 42.9785 162.091 42.9835 161.987 42.9664C161.882 42.9493 161.782 42.9105 161.693 42.8521C161.603 42.7937 161.526 42.7169 161.465 42.6261C161.404 42.5353 161.361 42.4323 161.339 42.3229C161.316 42.2135 161.314 42.0999 161.332 41.9886C161.351 41.8773 161.39 41.7705 161.447 41.6742C161.505 41.5779 161.579 41.494 161.666 41.4274C161.753 41.3608 161.852 41.3127 161.955 41.2859L161.958 41.2852L161.963 41.2838C191.27 33.88 209.825 34.3886 212.869 42.6793C217.928 56.4543 177.457 86.5304 120.734 111.15Z" fill="white"/>
<path d="M85.5661 104.833C37.5877 67.7216 7.14411 29.731 16.2586 18.3432C21.7231 11.5159 39.9156 15.7248 66.1709 29.8913C66.265 29.9411 66.3475 30.0092 66.4137 30.0917C66.48 30.1742 66.5286 30.2695 66.557 30.3723C66.5853 30.475 66.5927 30.5832 66.5788 30.6905C66.5649 30.7978 66.5299 30.9022 66.4758 30.9978C66.4218 31.0934 66.3498 31.1782 66.2638 31.2475C66.1779 31.3168 66.0798 31.3691 65.975 31.4015C65.8703 31.4339 65.761 31.4458 65.6534 31.4364C65.5458 31.427 65.442 31.3966 65.3479 31.3469L65.3452 31.3454L65.3361 31.3405C40.6034 17.9959 22.2874 13.3942 17.5357 19.331C9.29344 29.6289 40.9277 68.1838 86.6147 103.522C132.302 138.861 177.862 160.016 186.105 149.718C190.876 143.756 181.942 127.257 162.788 106.659C162.716 106.582 162.659 106.491 162.623 106.391C162.587 106.291 162.571 106.184 162.577 106.076C162.583 105.968 162.61 105.861 162.657 105.762C162.704 105.663 162.769 105.573 162.85 105.498C162.931 105.422 163.025 105.363 163.128 105.323C163.23 105.283 163.339 105.263 163.447 105.265C163.556 105.266 163.662 105.289 163.76 105.331C163.858 105.374 163.946 105.436 164.018 105.513L164.02 105.515L164.024 105.519C184.354 127.382 192.867 143.852 187.382 150.706C178.267 162.094 133.544 141.944 85.5661 104.833Z" fill="white"/>
<path d="M111.319 159.781C154.75 159.781 189.957 124.142 189.957 80.1785C189.957 36.2149 154.75 0.575439 111.319 0.575439C67.8885 0.575439 32.6809 36.2149 32.6809 80.1785C32.6809 124.142 67.8885 159.781 111.319 159.781Z" fill="#F2F2F2"/>
<path d="M182.986 81.1742C182.987 90.6884 181.136 100.11 177.539 108.9C173.943 117.69 168.671 125.677 162.025 132.404C155.379 139.132 147.489 144.468 138.805 148.109C130.122 151.749 120.815 153.623 111.416 153.622C103.039 153.617 94.7266 152.134 86.8527 149.239C74.5411 144.699 63.6959 136.827 55.498 126.48C47.3 116.132 42.0634 103.707 40.3584 90.5557C38.6533 77.4046 40.5451 64.032 45.8278 51.8938C51.1106 39.7557 59.5817 29.3172 70.319 21.7149C81.0563 14.1126 93.6482 9.63783 106.724 8.77777C119.799 7.91772 132.857 10.7053 144.476 16.8372C156.095 22.969 165.83 32.2099 172.62 43.554C179.41 54.898 182.995 67.9103 182.986 81.1742Z" fill="white"/>
<path d="M87.4626 89.1226C99.6622 89.1226 109.552 79.1115 109.552 66.7622C109.552 54.4129 99.6622 44.4018 87.4626 44.4018C75.2629 44.4018 65.3732 54.4129 65.3732 66.7622C65.3732 79.1115 75.2629 89.1226 87.4626 89.1226Z" fill="#FFE0E0"/>
<path d="M180.194 61.0767C175.406 63.4081 169.949 63.9151 164.823 62.5045C159.696 61.0939 155.243 57.8604 152.28 53.3965C149.318 48.9326 148.043 43.5374 148.691 38.1997C149.339 32.862 151.865 27.9394 155.807 24.334C167.521 33.7084 176.048 46.555 180.194 61.0767Z" fill="#FFE0E0"/>
<path d="M135.273 113.373C139.665 113.373 143.225 109.769 143.225 105.323C143.225 100.878 139.665 97.2737 135.273 97.2737C130.881 97.2737 127.321 100.878 127.321 105.323C127.321 109.769 130.881 113.373 135.273 113.373Z" fill="#FFE0E0"/>
<path d="M102.58 150.939C102.58 151.645 102.488 152.349 102.307 153.032C97.0301 152.363 91.8457 151.091 86.8528 149.239C87.2675 147.297 88.3771 145.579 89.9681 144.415C91.5591 143.251 93.5191 142.723 95.471 142.934C97.423 143.145 99.2289 144.079 100.541 145.557C101.854 147.035 102.58 148.952 102.58 150.939Z" fill="#FFE0E0"/>
<path d="M55.7509 77.5966C55.7505 81.6805 54.2171 85.6117 51.461 88.5942C48.705 91.5767 44.9323 93.3876 40.9069 93.6603C39.0848 83.0284 39.616 72.1197 42.462 61.7207C46.1746 62.3473 49.5475 64.2864 51.9807 67.1933C54.4139 70.1002 55.7499 73.7865 55.7509 77.5966Z" fill="#FFE0E0"/>
<path d="M135.03 78.5581C135.03 78.5581 133.722 82.2387 131.681 87.5269C131.021 89.2447 130.282 91.1304 129.485 93.1152C128.375 95.8791 127.152 98.8357 125.871 101.792C125.083 103.612 124.274 105.429 123.456 107.204C119.057 116.721 114.373 124.966 111.303 125.082C104.408 125.34 89.636 83.5848 88.0238 78.971C87.9294 78.7012 87.8808 78.5581 87.8808 78.5581H135.03Z" fill="#DDBEA9"/>
<path opacity="0.1" d="M131.681 87.5269C131.021 89.2447 130.282 91.1304 129.485 93.1152L111.218 78.5581H120.426L131.681 87.5269Z" fill="black"/>
<path opacity="0.1" d="M125.871 101.792C125.083 103.612 124.274 105.429 123.456 107.204L88.0238 78.971C87.9294 78.7012 87.8808 78.5581 87.8808 78.5581H96.7145L125.871 101.792Z" fill="black"/>
<path d="M112.273 41.5763C110.112 43.1258 106.694 42.5399 104.617 44.1809C103.196 45.3034 102.817 47.223 103.204 48.8934C103.592 50.5639 104.622 52.0461 105.659 53.4722C106.374 54.4564 107.116 55.4484 108.121 56.1969C109.527 57.2435 111.33 57.7306 113.098 58.1219C116.948 58.9738 120.879 59.4895 124.838 59.662C126.603 59.7388 128.603 59.662 129.792 58.479C130.485 57.7901 130.763 56.846 130.966 55.9329C131.284 54.5046 131.46 52.9668 130.804 51.6364C130.265 50.5428 129.227 49.7231 128.176 48.9954C124.88 46.7128 120.998 44.823 118.986 41.5376C118.186 40.2317 117.693 38.7184 116.481 37.7051C114.901 36.3845 111.386 35.8444 109.526 36.7267C109.813 37.3196 113.569 40.6475 112.273 41.5763Z" fill="#FFA7A7"/>
<path d="M94.1099 56.9764C93.469 58.9876 92.8786 61.1155 93.4182 63.1508C94.1297 65.8343 96.7296 67.844 99.5816 68.8209C102.434 69.7978 105.544 69.9118 108.591 70.0148L124.546 70.5541C126.551 70.6219 128.595 70.6963 130.479 71.32C132.032 71.8342 133.878 72.6807 135.173 71.7497C135.76 71.3274 136.024 70.6437 136.233 69.9916C136.911 67.8698 137.29 65.5398 136.378 63.491C135.333 61.1432 132.756 59.6005 130.081 58.8631C127.405 58.1257 124.572 58.0538 121.792 57.7754C118.972 57.4927 116.184 56.9933 113.457 56.2823C111.178 55.6879 108.869 54.9035 107.183 53.3935C106.271 52.5767 105.581 51.5806 104.721 50.7186C99.7973 45.7804 95.3209 53.176 94.1099 56.9764Z" fill="#FFA7A7"/>
<path d="M90.6039 66.2159C89.0521 66.845 87.706 67.826 86.6961 69.064C85.6862 70.3021 85.0467 71.7551 84.8396 73.2825C84.6324 74.8098 84.8645 76.3597 85.5136 77.7821C86.1626 79.2044 87.2064 80.4509 88.5441 81.401C90.9735 83.1264 94.1527 83.7264 97.233 83.9273C100.241 84.1235 103.262 83.9885 106.273 83.8535L132.922 82.659C134.484 82.589 136.252 82.4263 137.205 81.3045C137.917 80.4672 137.959 79.3123 137.789 78.2673C137.178 74.5079 134.041 71.1797 130.035 70.0403C128.525 69.6106 126.934 69.4746 125.357 69.3411L113.934 68.3738C112.396 68.2435 110.848 68.1118 109.357 67.7451C104.84 66.6338 100.803 63.3893 96.152 63.8697C92.9966 64.1956 90.3986 66.1947 88.1065 68.1841" fill="#FFA7A7"/>
<path opacity="0.1" d="M105.524 49.9283C105.524 49.9283 109.252 56.0203 128.377 58.48L105.524 49.9283Z" fill="black"/>
<path opacity="0.1" d="M94.9449 65.8842C94.9449 65.8842 101.874 72.2265 130.467 72.2265L94.9449 65.8842Z" fill="black"/>
<path d="M110.999 46.9001C112.007 46.9001 112.824 46.6536 112.824 46.3496C112.824 46.0455 112.007 45.799 110.999 45.799C109.991 45.799 109.174 46.0455 109.174 46.3496C109.174 46.6536 109.991 46.9001 110.999 46.9001Z" fill="#BB3C3C"/>
<path d="M117.083 50.4788C118.091 50.4788 118.908 50.2323 118.908 49.9283C118.908 49.6242 118.091 49.3777 117.083 49.3777C116.075 49.3777 115.258 49.6242 115.258 49.9283C115.258 50.2323 116.075 50.4788 117.083 50.4788Z" fill="#BB3C3C"/>
<path d="M124.079 54.3328C125.087 54.3328 125.905 54.0863 125.905 53.7823C125.905 53.4782 125.087 53.2317 124.079 53.2317C123.071 53.2317 122.254 53.4782 122.254 53.7823C122.254 54.0863 123.071 54.3328 124.079 54.3328Z" fill="#BB3C3C"/>
<path d="M99.7442 55.9846C100.752 55.9846 101.569 55.7381 101.569 55.434C101.569 55.13 100.752 54.8835 99.7442 54.8835C98.7362 54.8835 97.919 55.13 97.919 55.434C97.919 55.7381 98.7362 55.9846 99.7442 55.9846Z" fill="#BB3C3C"/>
<path d="M115.258 61.215C116.266 61.215 117.083 60.9685 117.083 60.6645C117.083 60.3604 116.266 60.1139 115.258 60.1139C114.25 60.1139 113.433 60.3604 113.433 60.6645C113.433 60.9685 114.25 61.215 115.258 61.215Z" fill="#BB3C3C"/>
<path d="M93.3561 71.9512C94.3641 71.9512 95.1813 71.7047 95.1813 71.4006C95.1813 71.0966 94.3641 70.8501 93.3561 70.8501C92.3481 70.8501 91.531 71.0966 91.531 71.4006C91.531 71.7047 92.3481 71.9512 93.3561 71.9512Z" fill="#BB3C3C"/>
<path d="M104.916 61.7656C105.924 61.7656 106.741 61.5191 106.741 61.215C106.741 60.911 105.924 60.6645 104.916 60.6645C103.907 60.6645 103.09 60.911 103.09 61.215C103.09 61.5191 103.907 61.7656 104.916 61.7656Z" fill="#BB3C3C"/>
<path d="M97.919 76.0805C98.927 76.0805 99.7442 75.834 99.7442 75.5299C99.7442 75.2259 98.927 74.9794 97.919 74.9794C96.911 74.9794 96.0939 75.2259 96.0939 75.5299C96.0939 75.834 96.911 76.0805 97.919 76.0805Z" fill="#BB3C3C"/>
<path d="M109.782 73.6029C110.79 73.6029 111.608 73.3564 111.608 73.0523C111.608 72.7483 110.79 72.5018 109.782 72.5018C108.774 72.5018 107.957 72.7483 107.957 73.0523C107.957 73.3564 108.774 73.6029 109.782 73.6029Z" fill="#BB3C3C"/>
<path d="M116.931 86.8167C118.023 86.8167 118.908 85.1528 118.908 83.1003C118.908 81.0478 118.023 79.3839 116.931 79.3839C115.839 79.3839 114.954 81.0478 114.954 83.1003C114.954 85.1528 115.839 86.8167 116.931 86.8167Z" fill="#FFA7A7"/>
<path d="M119.365 88.1931C120.457 88.1931 121.342 86.5293 121.342 84.4768C121.342 82.4243 120.457 80.7604 119.365 80.7604C118.273 80.7604 117.387 82.4243 117.387 84.4768C117.387 86.5293 118.273 88.1931 119.365 88.1931Z" fill="#FFA7A7"/>
</g>
<defs>
<filter id="filter0_d_66_3" x="6.12323" y="0.575439" width="211.173" height="167.206" filterUnits="userSpaceOnUse" color-interpolation-filters="sRGB">
<feFlood flood-opacity="0" result="BackgroundImageFix"/>
<feColorMatrix in="SourceAlpha" type="matrix" values="0 0 0 0 0 0 0 0 0 0 0 0 0 0 0 0 0 0 127 0" result="hardAlpha"/>
<feOffset dy="4"/>
<feGaussianBlur stdDeviation="2"/>
<feComposite in2="hardAlpha" operator="out"/>
<feColorMatrix type="matrix" values="0 0 0 0 0 0 0 0 0 0 0 0 0 0 0 0 0 0 0.25 0"/>
<feBlend mode="normal" in2="BackgroundImageFix" result="effect1_dropShadow_66_3"/>
<feBlend mode="normal" in="SourceGraphic" in2="effect1_dropShadow_66_3" result="shape"/>
</filter>
</defs>
</svg>
