<?xml version="1.0" encoding="utf-8"?>
<!-- Generator: Adobe Illustrator 26.5.0, SVG Export Plug-In . SVG Version: 6.00 Build 0)  -->
<svg version="1.1" id="Camada_1" xmlns="http://www.w3.org/2000/svg" xmlns:xlink="http://www.w3.org/1999/xlink" x="0px" y="0px"
	 viewBox="0 0 22 22" style="enable-background:new 0 0 22 22;" xml:space="preserve">
<style type="text/css">
	.st0{fill:#FFFFFF;}
</style>
<g>
	<path class="st0" d="M19,21.9c-0.1,0-0.2,0-0.3,0c-3.2-0.4-6.4-1.5-9.1-3.2c-2.5-1.6-4.7-3.8-6.3-6.3C1.6,9.7,0.5,6.5,0.1,3.3
		C0,2.4,0.3,1.6,0.9,1c0.6-0.6,1.4-1,2.2-1h3c0,0,0,0,0,0c1.5,0,2.8,1.1,3,2.6c0.1,0.9,0.3,1.8,0.6,2.6c0.4,1.1,0.1,2.3-0.7,3.2
		L8.4,9.1c1.2,1.8,2.7,3.4,4.6,4.6l0.7-0.7c0.8-0.8,2.1-1.1,3.2-0.7c0.8,0.3,1.7,0.5,2.6,0.6c1.5,0.2,2.6,1.5,2.6,3v3
		c0,0.8-0.4,1.6-1,2.2C20.5,21.6,19.7,21.9,19,21.9z M6.1,2C6.1,2,6.1,2,6.1,2h-3C2.8,2,2.6,2.1,2.4,2.3C2.2,2.5,2.1,2.8,2.1,3.1
		C2.4,6,3.4,8.8,5,11.3c1.5,2.3,3.4,4.3,5.7,5.7c2.5,1.6,5.3,2.6,8.2,2.9c0.3,0,0.5-0.1,0.7-0.3c0.2-0.2,0.3-0.5,0.3-0.7v-3
		c0,0,0,0,0,0c0-0.5-0.4-0.9-0.9-1c-1-0.1-2-0.4-3-0.8c-0.4-0.1-0.8-0.1-1.1,0.2l-1.3,1.3c-0.3,0.3-0.8,0.4-1.2,0.2
		c-2.7-1.5-4.9-3.7-6.4-6.4C6,9,6.1,8.5,6.4,8.2l1.3-1.3C7.9,6.7,8,6.2,7.9,5.9c-0.4-1-0.6-2-0.8-3C7.1,2.4,6.6,2,6.1,2z"/>
</g>
</svg>
