<?xml version="1.0" encoding="utf-8"?>
<!-- Generator: Adobe Illustrator 26.5.0, SVG Export Plug-In . SVG Version: 6.00 Build 0)  -->
<svg version="1.1" id="Camada_1" xmlns="http://www.w3.org/2000/svg" xmlns:xlink="http://www.w3.org/1999/xlink" x="0px" y="0px"
	 viewBox="0 0 24 23" style="enable-background:new 0 0 24 23;" xml:space="preserve">
<style type="text/css">
	.st0{fill:#FFFFFF;}
</style>
<g>
	<path class="st0" d="M8.3,21.5c-2.6,0-5.3-0.7-7.7-2.1c-0.4-0.2-0.6-0.7-0.5-1.1c0.1-0.4,0.6-0.8,1-0.7c1.7,0.1,3.4-0.3,4.9-1
		C-1.7,11.9,2,3.2,2.1,3.1c0.1-0.3,0.5-0.6,0.8-0.6c0.4,0,0.7,0.1,0.9,0.4C5.5,5.3,8.1,6.8,11,7c0-2.3,1.4-4.3,3.5-5.2
		c1.9-0.7,4.1-0.3,5.6,1c0.8-0.3,1.6-0.7,2.3-1.2c0.3-0.2,0.8-0.2,1.1,0s0.5,0.7,0.4,1.1c-0.3,1.4-1,2.7-2,3.8c0,0.2,0,0.3,0,0.5
		c0,5.5-2.4,10.1-6.7,12.5C13.2,20.8,10.8,21.5,8.3,21.5z M5,19c3.2,0.8,6.6,0.4,9.4-1.2C17.9,15.7,20,11.8,20,7
		c0-0.2,0-0.4-0.1-0.6c-0.1-0.3,0-0.7,0.3-0.9c0.2-0.2,0.4-0.5,0.6-0.7c-0.2,0.1-0.5,0.2-0.7,0.2c-0.4,0.1-0.8,0-1-0.3
		c-1-1.1-2.5-1.5-3.9-1C13.9,4.3,13,5.6,13,7v1c0,0.5-0.4,1-1,1C8.7,9.2,5.6,7.9,3.4,5.6c-0.6,2.6-0.8,7.5,5,10
		C8.7,15.8,9,16.1,9,16.4s-0.1,0.7-0.4,0.9C7.4,18.1,6.2,18.7,5,19z"/>
</g>
</svg>
